<svg xmlns="http://www.w3.org/2000/svg" viewBox="0 0 800 600" aria-hidden="true">
  <path d="M75.74,385.79 L42.80,320.01 L49.06,284.50 L29.18,229.39 L0.00,192.67 L22.40,165.18 L3.63,112.76 L58.53,82.50 L183.94,34.86 L285.13,0.00 L365.33,17.40 L371.39,42.53 L448.89,43.83 L547.86,55.53 L695.62,53.98 L736.84,65.00 L756.14,96.74 L759.62,142.31 L781.92,181.50 L781.45,222.57 L733.26,243.60 L758.05,291.33 L759.59,337.19 L800.00,427.13 L791.38,456.03 L751.51,468.02 L678.54,553.71 L699.27,600.00 L681.73,593.99 L605.36,554.39 L547.51,568.95 L509.57,558.37 L462.10,580.45 L421.57,543.94 L388.53,557.92 L384.00,551.70 L347.02,500.97 L287.27,494.75 L279.65,462.49 L224.54,450.97 L212.54,477.58 L168.89,456.27 L173.90,427.92 L113.82,418.96 L75.74,385.79 Z" fill="#f7e9d7" stroke="#c9b29b" stroke-width="2"/>
</svg>
